HIERARCHY
ROOT mixamorig:Hips
{
	OFFSET 0.000000 201.639420 0.000000
	CHANNELS 6 Xposition Yposition Zposition Xrotation Yrotation Zrotation
	JOINT mixamorig:Spine
	{
		OFFSET 0.006200 19.524994 -2.481800
		CHANNELS 3 Xrotation Yrotation Zrotation
		JOINT mixamorig:Spine1
		{
			OFFSET -0.000900 22.835007 -2.825400
			CHANNELS 3 Xrotation Yrotation Zrotation
			JOINT mixamorig:Spine2
			{
				OFFSET -0.020600 26.552490 -3.193300
				CHANNELS 3 Xrotation Yrotation Zrotation
				JOINT mixamorig:Neck
				{
					OFFSET -0.060000 30.701813 1.352200
					CHANNELS 3 Xrotation Yrotation Zrotation
					JOINT mixamorig:Head
					{
						OFFSET -0.087200 22.547607 3.670900
						CHANNELS 3 Xrotation Yrotation Zrotation
						JOINT mixamorig:HeadTop_End
						{
							OFFSET -0.830600 40.355194 7.893500
							CHANNELS 3 Xrotation Yrotation Zrotation
							End Site
							{
								OFFSET 0.000000 30.592346 0.000000
							}
						}
						JOINT mixamorig:RightEye
						{
							OFFSET -6.302100 18.118591 16.197100
							CHANNELS 3 Xrotation Yrotation Zrotation
							End Site
							{
								OFFSET 0.000000 30.592346 0.000000
							}
						}
						JOINT mixamorig:LeftEye
						{
							OFFSET 6.741500 18.382690 16.401899
							CHANNELS 3 Xrotation Yrotation Zrotation
							End Site
							{
								OFFSET 0.000000 30.592346 0.000000
							}
						}
					}
				}
				JOINT mixamorig:LeftShoulder
				{
					OFFSET 11.924900 18.230499 1.425400
					CHANNELS 3 Xrotation Yrotation Zrotation
					JOINT mixamorig:LeftArm
					{
						OFFSET 25.435989 -0.697632 -5.229300
						CHANNELS 3 Xrotation Yrotation Zrotation
						JOINT mixamorig:LeftForeArm
						{
							OFFSET 54.684776 0.000000 0.000000
							CHANNELS 3 Xrotation Yrotation Zrotation
							JOINT mixamorig:LeftHand
							{
								OFFSET 55.098175 0.000000 0.000000
								CHANNELS 3 Xrotation Yrotation Zrotation
								JOINT mixamorig:LeftHandMiddle1
								{
									OFFSET 23.369751 0.000000 0.000000
									CHANNELS 3 Xrotation Yrotation Zrotation
									JOINT mixamorig:LeftHandMiddle2
									{
										OFFSET 6.378677 0.000000 0.000000
										CHANNELS 3 Xrotation Yrotation Zrotation
										JOINT mixamorig:LeftHandMiddle3
										{
											OFFSET 6.148331 0.000000 0.000000
											CHANNELS 3 Xrotation Yrotation Zrotation
											JOINT mixamorig:LeftHandMiddle4
											{
												OFFSET 6.582504 0.000000 0.000000
												CHANNELS 3 Xrotation Yrotation Zrotation
												End Site
												{
													OFFSET -1.168900 6.395691 1.028606
												}
											}
										}
									}
								}
								JOINT mixamorig:LeftHandThumb1
								{
									OFFSET 7.235672 -3.848206 5.434273
									CHANNELS 3 Xrotation Yrotation Zrotation
									JOINT mixamorig:LeftHandThumb2
									{
										OFFSET 6.568451 -3.792297 3.792300
										CHANNELS 3 Xrotation Yrotation Zrotation
										JOINT mixamorig:LeftHandThumb3
										{
											OFFSET 6.063080 -3.500519 3.500518
											CHANNELS 3 Xrotation Yrotation Zrotation
											JOINT mixamorig:LeftHandThumb4
											{
												OFFSET 4.793182 -2.767334 2.767349
												CHANNELS 3 Xrotation Yrotation Zrotation
												End Site
												{
													OFFSET 0.101639 6.054260 1.275483
												}
											}
										}
									}
								}
								JOINT mixamorig:LeftHandIndex1
								{
									OFFSET 23.101074 -0.309540 4.992809
									CHANNELS 3 Xrotation Yrotation Zrotation
									JOINT mixamorig:LeftHandIndex2
									{
										OFFSET 6.226883 0.000000 0.000000
										CHANNELS 3 Xrotation Yrotation Zrotation
										JOINT mixamorig:LeftHandIndex3
										{
											OFFSET 6.094330 0.000000 0.000000
											CHANNELS 3 Xrotation Yrotation Zrotation
											JOINT mixamorig:LeftHandIndex4
											{
												OFFSET 5.482605 0.000000 0.000000
												CHANNELS 3 Xrotation Yrotation Zrotation
												End Site
												{
													OFFSET -1.427902 5.233032 0.797164
												}
											}
										}
									}
								}
								JOINT mixamorig:LeftHandRing1
								{
									OFFSET 22.299240 0.021149 -3.964172
									CHANNELS 3 Xrotation Yrotation Zrotation
									JOINT mixamorig:LeftHandRing2
									{
										OFFSET 6.321869 0.000000 0.000000
										CHANNELS 3 Xrotation Yrotation Zrotation
										JOINT mixamorig:LeftHandRing3
										{
											OFFSET 5.899796 0.000000 0.000000
											CHANNELS 3 Xrotation Yrotation Zrotation
											JOINT mixamorig:LeftHandRing4
											{
												OFFSET 6.517899 0.000000 0.000000
												CHANNELS 3 Xrotation Yrotation Zrotation
												End Site
												{
													OFFSET -1.637299 6.232208 0.980890
												}
											}
										}
									}
								}
								JOINT mixamorig:LeftHandPinky1
								{
									OFFSET 20.463791 -0.302338 -8.562233
									CHANNELS 3 Xrotation Yrotation Zrotation
									JOINT mixamorig:LeftHandPinky2
									{
										OFFSET 6.908646 0.000000 0.000000
										CHANNELS 3 Xrotation Yrotation Zrotation
										JOINT mixamorig:LeftHandPinky3
										{
											OFFSET 4.622849 0.000000 0.000000
											CHANNELS 3 Xrotation Yrotation Zrotation
											JOINT mixamorig:LeftHandPinky4
											{
												OFFSET 5.216080 0.000000 0.000000
												CHANNELS 3 Xrotation Yrotation Zrotation
												End Site
												{
													OFFSET -0.606308 5.116241 0.814926
												}
											}
										}
									}
								}
							}
						}
					}
				}
				JOINT mixamorig:RightShoulder
				{
					OFFSET -12.001300 18.284088 1.348900
					CHANNELS 3 Xrotation Yrotation Zrotation
					JOINT mixamorig:RightArm
					{
						OFFSET -25.308500 -0.751312 -5.164599
						CHANNELS 3 Xrotation Yrotation Zrotation
						JOINT mixamorig:RightForeArm
						{
							OFFSET -54.684429 0.000000 0.000000
							CHANNELS 3 Xrotation Yrotation Zrotation
							JOINT mixamorig:RightHand
							{
								OFFSET -55.150291 0.000000 0.000000
								CHANNELS 3 Xrotation Yrotation Zrotation
								JOINT mixamorig:RightHandMiddle1
								{
									OFFSET -23.317566 0.000000 0.000000
									CHANNELS 3 Xrotation Yrotation Zrotation
									JOINT mixamorig:RightHandMiddle2
									{
										OFFSET -6.378403 0.000000 0.000000
										CHANNELS 3 Xrotation Yrotation Zrotation
										JOINT mixamorig:RightHandMiddle3
										{
											OFFSET -6.148193 0.000000 0.000000
											CHANNELS 3 Xrotation Yrotation Zrotation
											JOINT mixamorig:RightHandMiddle4
											{
												OFFSET -6.583389 0.000000 0.000000
												CHANNELS 3 Xrotation Yrotation Zrotation
												End Site
												{
													OFFSET 1.171692 6.395905 1.029786
												}
											}
										}
									}
								}
								JOINT mixamorig:RightHandThumb1
								{
									OFFSET -7.190521 -3.860474 5.435846
									CHANNELS 3 Xrotation Yrotation Zrotation
									JOINT mixamorig:RightHandThumb2
									{
										OFFSET -6.567429 -3.791718 3.791708
										CHANNELS 3 Xrotation Yrotation Zrotation
										JOINT mixamorig:RightHandThumb3
										{
											OFFSET -6.062469 -3.500153 3.500166
											CHANNELS 3 Xrotation Yrotation Zrotation
											JOINT mixamorig:RightHandThumb4
											{
												OFFSET -4.792618 -2.767029 2.767022
												CHANNELS 3 Xrotation Yrotation Zrotation
												End Site
												{
													OFFSET -0.100327 6.053253 1.276754
												}
											}
										}
									}
								}
								JOINT mixamorig:RightHandIndex1
								{
									OFFSET -23.048981 -0.310791 4.992554
									CHANNELS 3 Xrotation Yrotation Zrotation
									JOINT mixamorig:RightHandIndex2
									{
										OFFSET -6.227539 0.000000 0.000000
										CHANNELS 3 Xrotation Yrotation Zrotation
										JOINT mixamorig:RightHandIndex3
										{
											OFFSET -6.095047 0.000000 0.000000
											CHANNELS 3 Xrotation Yrotation Zrotation
											JOINT mixamorig:RightHandIndex4
											{
												OFFSET -5.484772 0.000000 0.000000
												CHANNELS 3 Xrotation Yrotation Zrotation
												End Site
												{
													OFFSET 1.420593 5.237305 0.797056
												}
											}
										}
									}
								}
								JOINT mixamorig:RightHandRing1
								{
									OFFSET -22.246323 0.020569 -3.963762
									CHANNELS 3 Xrotation Yrotation Zrotation
									JOINT mixamorig:RightHandRing2
									{
										OFFSET -6.322128 0.000000 0.000000
										CHANNELS 3 Xrotation Yrotation Zrotation
										JOINT mixamorig:RightHandRing3
										{
											OFFSET -5.900024 0.000000 0.000000
											CHANNELS 3 Xrotation Yrotation Zrotation
											JOINT mixamorig:RightHandRing4
											{
												OFFSET -6.518356 0.000000 0.000000
												CHANNELS 3 Xrotation Yrotation Zrotation
												End Site
												{
													OFFSET 1.636398 6.232697 0.982186
												}
											}
										}
									}
								}
								JOINT mixamorig:RightHandPinky1
								{
									OFFSET -20.411011 -0.303314 -8.561701
									CHANNELS 3 Xrotation Yrotation Zrotation
									JOINT mixamorig:RightHandPinky2
									{
										OFFSET -6.907349 0.000000 0.000000
										CHANNELS 3 Xrotation Yrotation Zrotation
										JOINT mixamorig:RightHandPinky3
										{
											OFFSET -4.623840 0.000000 0.000000
											CHANNELS 3 Xrotation Yrotation Zrotation
											JOINT mixamorig:RightHandPinky4
											{
												OFFSET -5.218353 0.000000 0.000000
												CHANNELS 3 Xrotation Yrotation Zrotation
												End Site
												{
													OFFSET 0.602097 5.118835 0.816273
												}
											}
										}
									}
								}
							}
						}
					}
				}
			}
		}
	}
	JOINT mixamorig:LeftUpLeg
	{
		OFFSET 18.168400 -13.561905 -0.039000
		CHANNELS 3 Xrotation Yrotation Zrotation
		JOINT mixamorig:LeftLeg
		{
			OFFSET 0.577358 -80.825211 -3.695000
			CHANNELS 3 Xrotation Yrotation Zrotation
			JOINT mixamorig:LeftFoot
			{
				OFFSET -0.577356 -83.370262 -6.520700
				CHANNELS 3 Xrotation Yrotation Zrotation
				JOINT mixamorig:LeftToeBase
				{
					OFFSET 0.750401 -20.798306 25.135401
					CHANNELS 3 Xrotation Yrotation Zrotation
					JOINT mixamorig:LeftToe_End
					{
						OFFSET -0.000500 0.001200 19.917799
						CHANNELS 3 Xrotation Yrotation Zrotation
						End Site
						{
							OFFSET 0.000000 19.917805 0.000000
						}
					}
				}
			}
		}
	}
	JOINT mixamorig:RightUpLeg
	{
		OFFSET -18.162500 -13.585098 -0.041000
		CHANNELS 3 Xrotation Yrotation Zrotation
		JOINT mixamorig:RightLeg
		{
			OFFSET -0.595024 -80.945297 -3.631900
			CHANNELS 3 Xrotation Yrotation Zrotation
			JOINT mixamorig:RightFoot
			{
				OFFSET 0.595024 -83.218193 -6.561200
				CHANNELS 3 Xrotation Yrotation Zrotation
				JOINT mixamorig:RightToeBase
				{
					OFFSET -0.753601 -20.807106 25.115000
					CHANNELS 3 Xrotation Yrotation Zrotation
					JOINT mixamorig:RightToe_End
					{
						OFFSET 0.000299 0.001700 19.918200
						CHANNELS 3 Xrotation Yrotation Zrotation
						End Site
						{
							OFFSET 0.000000 19.918203 0.000000
						}
					}
				}
			}
		}
	}
}
MOTION
Frames: 5
Frame Time: 0.033333
0.370917 185.938904 1.868965 5.448727 2.951367 -3.232141 4.921624 1.322337 1.605466 9.857122 2.800248 1.722123 9.857125 2.800252 1.722121 -7.496571 -3.144980 -0.434787 -14.101443 -7.360287 -5.253898 -0.000000 0.000000 -0.000000 -0.000000 0.000000 -0.000000 -0.000000 0.000000 -0.000000 1.084062 -1.226537 -9.108712 21.951205 16.129908 -69.744605 5.201998 -103.989910 -6.123277 11.822893 -20.243272 2.841624 -4.806294 -3.746021 -81.576747 -5.132300 -5.371489 -79.877717 0.000015 0.000006 -0.000013 0.000002 -0.000001 0.000002 -3.691968 -7.086358 -6.633086 5.370489 13.667902 2.734600 -0.000004 -0.000003 -0.000018 -0.000002 -0.000002 0.000002 -4.473755 -5.484387 -78.092053 -6.119757 -4.169258 -86.100811 0.000007 0.000003 -0.000006 -0.000000 -0.000002 0.000001 -3.655186 4.571954 -85.638845 -3.069050 -4.302898 -82.602969 0.000003 -0.000001 -0.000004 -0.000000 -0.000004 -0.000002 -3.272569 10.937564 -91.302690 -1.692340 -6.213547 -92.125933 0.000001 -0.000005 0.000001 -0.000002 0.000003 0.000001 0.776472 6.054089 9.529809 5.506723 -10.523613 55.529284 -70.896701 86.710467 75.613555 -0.540991 5.793813 2.436029 -2.180805 2.047341 78.118847 -4.735112 4.314506 85.933164 0.000004 -0.000002 0.000009 0.000001 0.000001 0.000001 1.190065 2.334186 7.237148 4.247071 -11.103137 -2.569461 0.000009 -0.000015 -0.000016 -0.000001 -0.000001 -0.000001 3.425650 2.972097 72.847000 -5.581864 2.947833 92.129608 -0.000002 -0.000001 -0.000001 -0.000000 -0.000001 0.000003 -3.529983 -3.130910 85.505424 -4.835727 5.681271 88.623412 -0.000004 0.000007 -0.000006 -0.000002 0.000002 0.000001 -4.108879 -7.839705 98.143384 -5.436749 9.326586 98.221570 0.000006 -0.000010 0.000022 0.000001 -0.000000 0.000001 -44.866348 5.440928 -0.768278 100.215418 13.265329 3.881582 -9.798512 -0.865256 5.856667 -0.898544 -2.887884 -6.627551 -0.000001 0.000000 -0.000000 -22.117722 -5.781536 4.081391 48.798993 -0.003204 -1.555140 -22.260172 0.391553 -1.380616 -10.577488 12.984468 -1.069200 -0.000000 -0.000001 -0.000000 
2.409712 185.743729 27.593510 6.111510 -0.468572 -1.681285 4.785826 1.737767 0.635173 9.625589 3.446657 -0.340924 9.625595 3.446663 -0.340925 -8.953895 -3.451359 1.296459 -14.123212 -7.185077 -5.348844 0.000000 -0.000000 -0.000001 0.000000 -0.000000 -0.000001 0.000000 -0.000000 -0.000001 0.332972 0.418416 -5.680540 27.467201 21.013760 -72.740033 -33.911391 -94.934090 -48.161276 16.568777 -23.315670 6.287595 -4.772927 -3.744648 -81.036786 -5.100385 -5.358512 -79.496210 0.000016 0.000011 -0.000014 0.000001 -0.000001 0.000001 -3.816393 -7.108416 -6.733333 5.216777 13.652378 2.711105 -0.000006 -0.000006 -0.000018 -0.000001 -0.000000 -0.000001 -4.493490 -5.483089 -77.587691 -6.087506 -4.143718 -85.733559 0.000007 0.000003 -0.000002 -0.000001 0.000000 -0.000004 -3.615876 4.548692 -85.120017 -3.044561 -4.303737 -82.282585 0.000004 0.000001 -0.000004 -0.000000 -0.000002 -0.000000 -3.224700 10.911830 -90.833928 -1.676628 -6.230145 -91.778652 0.000001 0.000000 0.000003 0.000000 0.000001 0.000001 0.616547 4.690972 5.874223 2.241674 -9.863321 50.941706 -46.355422 86.157420 51.148862 -1.500511 5.882316 1.182214 -2.179979 2.097527 77.627320 -4.713786 4.310313 85.603724 0.000002 0.000002 0.000013 0.000003 -0.000001 -0.000000 1.053723 2.356319 7.321028 4.234913 -11.028002 -2.526928 0.000010 -0.000015 -0.000013 -0.000004 0.000002 0.000001 3.341691 3.081708 72.394234 -5.558886 2.907107 91.650893 0.000003 0.000004 0.000001 0.000002 0.000002 -0.000002 -3.479311 -3.111358 85.013384 -4.800408 5.682383 88.262614 -0.000006 0.000003 -0.000005 -0.000001 -0.000004 -0.000001 -4.004514 -7.824340 97.615834 -5.400263 9.349049 97.817721 0.000002 -0.000004 0.000017 0.000001 0.000001 0.000000 -59.832034 2.628931 -2.026089 106.485135 16.432482 2.779080 -2.348131 -0.371534 0.158391 -0.859995 -2.763956 -6.343125 0.000001 0.000001 -0.000001 -10.987601 -3.379949 2.571027 42.246055 1.944566 -2.193780 -22.459146 0.163681 -0.809664 -17.277076 9.109398 0.434052 -0.000000 -0.000001 -0.000000 
3.986210 185.375763 53.396622 7.475092 -1.636735 1.049765 4.747249 1.977264 -0.596408 9.567849 3.796186 -2.249445 9.567848 3.796186 -2.249445 -12.053038 -4.306729 2.912243 -13.558123 -7.254199 -5.009279 0.000000 -0.000000 -0.000001 0.000000 -0.000000 -0.000001 0.000000 -0.000000 -0.000001 -0.324115 1.065960 -2.388254 31.745947 25.581394 -73.142276 39.106088 -76.670670 17.327519 24.519910 -23.019049 10.810480 -4.678466 -3.738483 -79.495260 -5.009785 -5.320104 -78.407280 0.000015 0.000008 -0.000014 0.000001 -0.000001 0.000002 -4.171277 -7.170557 -7.015298 4.776304 13.608150 2.644865 -0.000007 -0.000008 -0.000016 0.000005 0.000001 0.000000 -4.549842 -5.479859 -76.146712 -5.995625 -4.071004 -84.685084 0.000011 0.000003 -0.000006 -0.000000 -0.000001 -0.000003 -3.503851 4.484135 -83.638221 -2.974679 -4.305450 -81.367504 0.000002 0.000001 -0.000003 -0.000001 -0.000003 0.000000 -3.088252 10.840203 -89.494896 -1.631375 -6.276413 -90.783651 0.000001 -0.000000 -0.000002 -0.000002 0.000002 0.000000 0.495890 4.500398 2.883422 2.373743 -13.092669 44.216999 6.918463 80.248869 1.966918 1.691645 6.614923 6.320058 -2.178737 2.238859 76.225396 -4.652901 4.297236 84.660277 0.000010 -0.000002 0.000008 -0.000001 0.000002 0.000002 0.661512 2.419742 7.557818 4.200638 -10.815869 -2.405045 0.000009 -0.000013 -0.000017 0.000002 0.000001 0.000000 3.101019 3.394308 71.102898 -5.493232 2.791306 90.281700 0.000002 0.000002 0.000002 -0.000002 0.000002 0.000002 -3.335137 -3.057898 83.609452 -4.699129 5.684517 87.229111 -0.000005 -0.000001 -0.000009 0.000005 0.000002 0.000005 -3.706474 -7.784105 96.108678 -5.294924 9.411206 96.658720 0.000007 -0.000004 0.000019 -0.000001 0.000001 -0.000001 -69.261656 2.179985 -2.421641 99.679856 17.390022 1.036613 0.586797 -1.098137 -0.139158 -0.758464 -2.437735 -5.594456 -0.000000 0.000001 -0.000000 1.065922 -3.686958 -1.289170 30.699487 0.816594 -1.896725 -16.226072 -0.396260 1.596341 -25.714055 9.192114 0.928314 -0.000000 -0.000000 -0.000000 
5.224124 183.499771 78.553566 8.748101 0.145607 3.575118 4.476563 1.919015 -1.338183 9.022985 3.910113 -3.148996 9.022981 3.910114 -3.148996 -12.978302 -5.276116 1.664713 -12.034831 -8.001105 -4.127825 0.000000 0.000000 0.000000 0.000000 0.000000 0.000000 0.000000 0.000000 0.000000 -0.218155 -1.819563 -0.757427 41.100657 33.003399 -73.698868 38.699654 -68.344259 7.708076 29.625102 -22.931826 17.098185 -4.531084 -3.721747 -77.057060 -4.867683 -5.255627 -76.685546 0.000012 0.000008 -0.000015 -0.000001 -0.000000 -0.000000 -4.732630 -7.266132 -7.452707 4.076087 13.539076 2.542724 -0.000002 -0.000007 -0.000016 -0.000003 -0.000001 0.000000 -4.638967 -5.475912 -73.865265 -5.850574 -3.956428 -83.026755 0.000007 0.000002 -0.000005 -0.000001 0.000000 0.000000 -3.327447 4.388253 -81.293062 -2.864123 -4.305971 -79.918957 0.000003 -0.000000 -0.000003 0.000001 -0.000000 0.000002 -2.872987 10.733316 -87.375079 -1.559230 -6.346021 -89.202851 0.000001 -0.000001 0.000001 0.000001 0.000001 -0.000000 0.430752 3.663632 0.980984 7.944692 -21.487852 39.360471 23.921088 72.592726 -8.359900 6.947986 11.425390 4.946030 -2.179241 2.457323 74.010195 -4.556837 4.273635 83.162061 0.000005 -0.000002 0.000009 -0.000004 -0.000003 -0.000003 0.034693 2.519442 7.926989 4.146534 -10.485223 -2.211295 0.000008 -0.000013 -0.000017 -0.000001 -0.000000 0.000001 2.718517 3.889039 69.063451 -5.389330 2.609809 88.110936 -0.000002 0.000003 -0.000001 0.000004 0.000002 -0.000001 -3.108382 -2.980347 81.390173 -4.538232 5.684402 85.587571 -0.000002 -0.000001 -0.000009 0.000002 -0.000005 -0.000003 -3.234562 -7.732523 93.722783 -5.125770 9.502691 94.813128 0.000005 -0.000004 0.000020 0.000003 0.000001 -0.000001 -74.360563 4.408575 -3.121787 85.507186 15.419540 -1.579599 -3.410643 -1.421435 2.661563 -0.615042 -1.976930 -4.536897 -0.000001 0.000001 -0.000000 11.527432 -7.542716 -5.536819 19.344071 2.820261 0.062821 1.396017 -0.346938 7.031357 -41.008674 8.870750 -2.551298 0.000000 0.000000 0.000000 
6.367171 179.205002 103.114151 9.100820 3.660934 3.682124 4.148966 2.028045 -1.168624 8.381930 4.671959 -2.955245 8.381924 4.671958 -2.955247 -14.151626 -6.374411 0.054321 -9.571474 -8.994945 -2.866035 -0.000000 -0.000000 0.000000 -0.000000 -0.000000 0.000000 -0.000000 -0.000000 0.000000 -0.064791 -4.752403 3.156715 48.128539 37.607923 -72.688833 44.177995 -64.188117 4.487281 30.451367 -26.914138 16.761301 -4.341894 -3.687125 -73.860129 -4.683632 -5.164294 -74.429084 0.000015 0.000007 -0.000011 -0.000001 0.000001 -0.000000 -5.469422 -7.386398 -8.013490 3.152488 13.450715 2.413917 -0.000007 -0.000006 -0.000018 0.000000 -0.000000 -0.000000 -4.755590 -5.472883 -70.870412 -5.660797 -3.807186 -80.852269 0.000007 0.000003 -0.000004 -0.000001 -0.000002 0.000002 -3.098027 4.274077 -78.215645 -2.719466 -4.302521 -78.018027 0.000003 0.000001 -0.000008 -0.000002 0.000001 -0.000002 -2.592140 10.605484 -84.592398 -1.463851 -6.430365 -87.119678 -0.000001 -0.000000 -0.000000 0.000000 0.000001 -0.000001 0.144121 0.339846 -0.933584 17.433334 -31.066128 41.217381 30.014354 69.457252 -10.582253 9.280484 16.830961 1.389763 -2.184300 2.734686 71.108744 -4.431297 4.237580 81.188956 0.000004 -0.000001 0.000007 0.000004 0.000001 0.000003 -0.797441 2.647715 8.402681 4.075246 -10.058984 -1.955589 0.000011 -0.000012 -0.000015 0.000000 -0.000001 0.000001 2.214543 4.538790 66.394172 -5.252824 2.375404 85.257017 -0.000002 0.000005 0.000004 0.000001 0.000002 -0.000003 -2.813948 -2.892028 78.481838 -4.326571 5.677479 83.425023 -0.000003 0.000006 -0.000008 -0.000001 0.000001 0.000000 -2.615636 -7.688323 90.591087 -4.900292 9.609128 92.374852 0.000002 -0.000004 0.000018 0.000002 -0.000002 -0.000001 -75.382599 5.455430 -4.276783 66.857273 13.318410 -4.006246 -3.503592 -1.721587 1.672669 -0.450523 -1.448255 -3.323591 -0.000000 0.000000 -0.000001 14.568416 -8.357158 -6.132789 21.015990 1.071596 -0.092854 22.840600 3.320885 23.262858 -55.695470 11.998149 -7.166591 -0.000000 0.000001 -0.000000 
